/* XPM */
static char *graphic[] = {
/* width height num_colors chars_per_pixel */
"64 64 75 1 ",
"  c #0B0B0B",
". c #131313",
"X c gray11",
"o c #232323",
"O c #2B2B2B",
"+ c #333434",
"@ c #383737",
"# c #373738",
"$ c #3B3B3B",
"% c #434444",
"& c #474A4B",
"* c #4C4D4D",
"= c #545556",
"- c #5C5D5D",
"; c #5F6060",
": c gray39",
"> c #6B6D6D",
", c #747474",
"< c #777878",
"1 c #7B7C7B",
"2 c #838484",
"3 c #878A8A",
"4 c gray55",
"5 c #8C8F91",
"6 c #949595",
"7 c #979999",
"8 c #9C9C9D",
"9 c #9B9FA0",
"0 c #9DA2A3",
"q c #A3A4A4",
"w c #A3A7A8",
"e c #A6AAAB",
"r c #ACADAD",
"t c #ABAEB0",
"y c #AEB2B3",
"u c #B3B4B4",
"i c #B3B7B8",
"p c #B6BABB",
"a c #BBBCBC",
"s c #C0BFBF",
"d c #BFC0BF",
"f c #BABEC0",
"g c #BDC2C3",
"h c #BFC6C8",
"j c #C2C4C4",
"k c #C3C7C8",
"l c #C5CACA",
"z c #CACCCC",
"x c #D0CFCF",
"c c #CBCFD0",
"v c #CED2D2",
"b c #D3D4D5",
"n c #D8D7D7",
"m c #D6D8D7",
"M c #D5D7D8",
"N c #D5D9DA",
"B c #DBDCDC",
"V c #E0DFDF",
"C c #DEE0DF",
"Z c #DCDFE0",
"A c #DEE1E1",
"S c #E3E4E4",
"D c #E5E7E8",
"F c #E6E9E9",
"G c #EBECEC",
"H c #EEF0EF",
"J c #EDEFF0",
"K c #EFF1F1",
"L c #F3F4F4",
"P c #F7F8F7",
"I c #F5F7F8",
"U c #F8F7F8",
"Y c #F6F9F9",
"T c #FDFDFD",
"R c None",
/* pixels */
"RRRRRRRRRRRRRRRRRRRRRRRRRRRRRRRRRRRRRRRRRRRRRRRRRRRRRRRRRRRRRRRR",
"RRRRRRRRRRRRRRRRRRRRRRRRRRRRRRRRRRRRRRRRRRRRRRRRRRRRRRRRRRRRRRRR",
"RRRRRRRRRRRRRRRRRRRRRRRRRRRRRRRRRRRRRRRRRRRRRRRRRRRRRRRRRRRRRRRR",
"RRRRRRRRRRRRRRRRRRRRRRRRRnVVDDDVDDGDADnRRRRRRRRRRRRRRRRRRRRRRRRR",
"RRRRRRRRRRRRRRRRRRRRRRVGLnblnjkjzksVkbnUGDRRRRRRRRRRRRRRRRRRRRRR",
"RRRRRRRRRRRRRRRRRRRDGTxDlnnGnLHHHGHbGnVlDxTGRRRRRRRRRRRRRRRRRRRR",
"RRRRRRRRRRRRRRRRRRLLxnGnGKUGTHLHUHGLKGLGnVVzUTRRRRRRRRRRRRRRRRRR",
"RRRRRRRRRRRRRRRRKUbnLDKGUGUULLULUUGULLUnTLVKbxUKRRRRRRRRRRRRRRRR",
"RRRRRRRRRRRRRRRUGnHDLLJLDLUVUGUKGUGUnLLKHLLUVGxGURRRRRRRRRRRRRRR",
"RRRRRRRRRRRRRDUnbCLLGUKUDLGDLLGLKGTGGGLUGUDUDTnxnUGRRRRRRRRRRRRR",
"RRRRRRRRRRRRGTlDGULGLYLFGGTLLULULTLLLLDGLKYGKKKKDkUGRRRRRRRRRRRR",
"RRRRRRRRRRRGLVKKGLGGUAGYKUGTLLJGGKKLTLULLGGGTDYKLHDLGRRRRRRRRRRR",
"RRRRRRRRRRDTjVLGLLDLDLUYTTUULKGGGGJLUUUULTUGGUKKGLVzUGRRRRRRRRRR",
"RRRRRRRRRVLDVHLLKDGGTLUUUUUULJGFGGJLUUUUULYUJGULKLHVGUnRRRRRRRRR",
"RRRRRRRRRLlGUUUKKHLKKTUUUUUULKJGGGGLUUUUUUUUKTGKUUUUGlGRRRRRRRRR",
"RRRRRRRRDnDUUUUTLTKTUUUUUUUUIKJGGGLLUUUUUUUULLTLUUUUUnnDRRRRRRRR",
"RRRRRRRbJbDUUUUTGLUUUUUUUUUUUUKGGKYUUUUUUUUUUUUGLUUUULnGbRRRRRRR",
"RRRRRRRDnGDLUUUGTTUUUUUUUUUUUYGGFJLUUUUUUUUUUUUUDUUUUGFbARRRRRRR",
"RRRRRRlnnLULGUDLLUUUUUUUUUUUUYLGGKUUUUUUUUUUUUUUUDUGKUKNAvRRRRRR",
"RRRRRRnnGUUUUGLLUUUUUUUUUUUUUYKGGKUUUUUUUUUUUUUULLJUUUYFbbRRRRRR",
"RRRRRkvlKYYUUKLUUUUUUUUUUUUUULHGGKLUTTLTUUUUUUUUULLUUUIJlbkRRRRR",
"RRRRRvlZFIYUULLKUUUUUUUnnnnnnUHGGKYKBnnnnDUUUUUYLLLYUULJnklRRRRR",
"RRRRRvanDGYYGLGGLLYUUUGULLLLHLLGGLUDLLLLLJUUYYKFGFGFUKFAAklRRRRR",
"RRRRpgkDAAFDYDADFGLUUUCLLHHHGDLGGLGGKKKKLJDULJGDDCFUFFAZnakpRRRR",
"RRRRpglNNNDvDnAAAFFFKALUUUUUKDLGGLVGLTLTYLGJFFDABNZDcANNNbagRRRR",
"RRRRgybvvbNnDNNbnAADFNLYYYLTTKVHKLDTTLLLLIKlAAANNNvZDZNNbvyfRRRR",
"RRRRgylcvvvAvlvvbNMNvFGJHKKKJGDLKFLLKLHHJGJABbNvcccNJcvcvlgaRRRR",
"RRRRiwphllpFvllllvvvlFKJLLKTYTVDGnLLLLLLIKJDpcclchhcDylhlu0pRRRR",
"RRRttyhippgchhgkllkkvGJNTLYYYYYNDLYGHLUTIJFKllkkhgglNgpiggttwRRR",
"RRRteyighlgZigaggagfAvvAnVDFGJJJVGJDVDnnNNvvnaagdpppNghhgpttwRRR",
"RRRteypgggiNhllllllllllhlbNZAFKKLLFANvMvllhcllllclllvpggfpeeeRRR",
"RRRteyipfgiNgppgfapAvlFDNNbbvbNJDAAUYvvvNcNNNvpppapaNppgfieeeRRR",
"RRRt0ypppgpNiiyyiylhglBCCdhljxnVznGKHDkgggghgNtyyyypbdggiitw0RRR",
"RRRteyppggybllhhlghhghdsdccbVHPxaGVnbcvbvcccchcglhhcbigpgpww3RRR",
"RRRRy9hhlhdBldhhllNNBccbvFCJPTPxsVnDDDGJFFDAAZGillllDiklhg0i>RRR",
"RRRRp0gggghBcddgibllChccbBBGSGnsuxaGVVDbCCCnNNBclllvDlggggwg%RRR",
"RRRRdegghhlgNghpdbcbccbbBCAHHGzrralnGVVCDDDDCCCCdllVnbllklypRRRR",
"RRRRw0ylhhleGlhdACADdcbCCBBJHVxjszVsCDnDDGGGDDDGlcbKivcllpweRRRR",
"RRRR5yegghphZNgKLJKLDlnCDzTJLVnnxnVLzGnULLLLLJYJTlDGvlcllwp6RRRR",
"RRRR>h0pghvvgFvllccbbCCCSGVBjsurqruaxVGDDAnCnNBbxnYlADvvkiv=RRRR",
"RRRRRdydlvvNbZZvbbbCCCADSSVnzsuruuujxnSGSSSVVVVnNFJAADAnzadRRRRR",
"RRRRR2pycvNNZvKZbNNCCACDSSVxssarruusjnVSSSSSSVCCAYZGFFANsk3RRRRR",
"RRRRR&vehbBBZZvKCNCCVDDVSVnzsuuurusasxnVSSSSSVVVYCAFKDDbab$RRRRR",
"RRRRRR7ggvNBZKNKLCCCVVDDVnxzssurrruusjnnGSSGSSVLYAKDDFnll6RRRRRR",
"RRRRRR&lylBDDDJSPKSVDDDVVnxjsaurruuusjxnVVSSSSKPDKDFAGvgN%RRRRRR",
"RRRRRRR2cdbGDGGSbTKSVDDVnxzsaaurrruusjzxVSSVHLPnCGGFGnkb3RRRRRRR",
"RRRRRRR#yhdLJJYGKGHKGVVVnxjsaurrrruuasjxnVVHHLSLGKKKLukp#RRRRRRR",
"RRRRRRRR-cdAGGJVTTDGTKDnxxssauuuruuuusjzxVHLGGTTKKKFCsb;RRRRRRRR",
"RRRRRRRRR2vavCDLYJJKJKGDnssduuurrruruasxnGJJGLGLKFAbsn2RRRRRRRRR",
"RRRRRRRRRR8ndbLLGDDJJVVGbCxssurrrrrasxxxDnnGGGGGLYnlV7+RRRRRRRRR",
"RRRRRRRRRR#9bzDDDCDnDJCbsVxnjzssjssjxjBabnDGAFDDDnvn0@RRRRRRRRRR",
"RRRRRRRRRRR$8bblDDnGVDbDzdusasuasssraruzbnDnDDnDkbb8$RRRRRRRRRRR",
"RRRRRRRRRRRR@6zbnnVnGbDndBxbrraaqqqsrxnkanDlDVnnnj5@RRRRRRRRRRRR",
"RRRRRRRRRRRRR+1annlnDlbDbljYrBUbnnjTuzLaznlnxnjna1@RRRRRRRRRRRRR",
"RRRRRRRRRRRRRRR;0jnlakjxDbiGszDjjBzTuTUujzsujnkq-RRRRRRRRRRRRRRR",
"RRRRRRRRRRRRRRRR@1raxaurdcaBddsGuujKrSzrqwajuq,@RRRRRRRRRRRRRRRR",
"RRRRRRRRRRRRRRRRRR*16rsar88qqqsqq8qr846ruaq4>$RRRRRRRRRRRRRRRRRR",
"RRRRRRRRRRRRRRRRRRRR@:,68rurqq66888qqur63,-OORRRRRRRRRRRRRRRRRRR",
"RRRRRRRRRRRRRRRRRRRRRRX$=:,2224424221,-*+.RRRRRRRRRRRRRRRRRRRRRR",
"RRRRRRRRRRRRRRRRRRRRRRRRR. o@%%*%%$+X .RRRRRRRRRRRRRRRRRRRRRRRRR",
"RRRRRRRRRRRRRRRRRRRRRRRRRRRRRRRRRRRRRRRRRRRRRRRRRRRRRRRRRRRRRRRR",
"RRRRRRRRRRRRRRRRRRRRRRRRRRRRRRRRRRRRRRRRRRRRRRRRRRRRRRRRRRRRRRRR",
"RRRRRRRRRRRRRRRRRRRRRRRRRRRRRRRRRRRRRRRRRRRRRRRRRRRRRRRRRRRRRRRR",
"RRRRRRRRRRRRRRRRRRRRRRRRRRRRRRRRRRRRRRRRRRRRRRRRRRRRRRRRRRRRRRRR"
};
