/* XPM */
static char *graphic[] = {
/* width height num_colors chars_per_pixel */
"16 16 139 2 ",
"   c gray34",
".  c #5B5B5B",
"X  c #717171",
"o  c #767676",
"O  c #9B9B9A",
"+  c #9B9B9B",
"@  c #A1A5A6",
"#  c #A7AAA9",
"$  c #AAAEAE",
"%  c #ABAFB0",
"&  c #ABB0B1",
"*  c #ABB0B2",
"=  c gray69",
"-  c gray70",
";  c #B4B4B4",
":  c #B6B5B6",
">  c #B2B6B8",
",  c #B4B8B9",
"<  c gray72",
"1  c #BABBBB",
"2  c #BCBCBD",
"3  c gray",
"4  c #BEBEBF",
"5  c gray75",
"6  c #BAC0C2",
"7  c #BEC2C3",
"8  c #BEC3C4",
"9  c #BFC3C4",
"0  c #C0C3C3",
"q  c #C3C3C3",
"w  c #C0C5C6",
"e  c #C1C6C7",
"r  c #C2C6C7",
"t  c #C5C4C4",
"y  c #C6C6C6",
"u  c gray78",
"i  c #C1C7C8",
"p  c #C2C8C9",
"a  c #C4C8C9",
"s  c #C6CACB",
"d  c #C6CBCC",
"f  c #C7CBCC",
"g  c #C7CDCE",
"h  c #C8C8C8",
"j  c #CBCBCB",
"k  c #C8CBCC",
"l  c #C9CBCC",
"z  c #C8CBCD",
"x  c #C8CCCC",
"c  c #C8CCCD",
"v  c #CACDCE",
"b  c #CBCECF",
"n  c #CDCDCD",
"m  c #CCCECE",
"M  c #CECECE",
"N  c #CACFD1",
"B  c #CFCFD0",
"V  c #CDD1D1",
"C  c #CFD4D5",
"Z  c #D0D0D0",
"A  c #D1D3D4",
"S  c #D4D3D4",
"D  c #D4D6D7",
"F  c #D7D7D7",
"G  c #D7D8D8",
"H  c #D6DADB",
"J  c #D8D8D8",
"K  c #D8D9D9",
"L  c #D9DADA",
"P  c #DBDEDE",
"I  c #DADEDF",
"U  c #DDDEDF",
"Y  c #DDDFDF",
"T  c #DFE0E0",
"R  c #DFE0E1",
"E  c #DFE1E1",
"W  c #DFE1E2",
"Q  c #DFE2E2",
"!  c #DFE3E4",
"~  c #E0E2E3",
"^  c #E0E3E3",
"/  c #E2E3E3",
"(  c #E3E4E4",
")  c #E4E4E4",
"_  c #E4E5E6",
"`  c #E4E6E6",
"'  c #E5E6E6",
"]  c #E4E6E7",
"[  c #E5E6E7",
"{  c #E5E7E7",
"}  c #E6E6E6",
"|  c #E6E7E7",
" . c #E7E7E7",
".. c #E8E7E7",
"X. c #E4E7E8",
"o. c #E5E8E8",
"O. c #E7E8E8",
"+. c #E9E8E9",
"@. c #E9E9E9",
"#. c #E8EAEA",
"$. c #E9EBEB",
"%. c gray92",
"&. c #EAECEC",
"*. c #EBECEC",
"=. c #EBEDEE",
"-. c #ECECEC",
";. c #ECEEEE",
":. c #EDEFEF",
">. c #EDEFF0",
",. c #EEF0F0",
"<. c #EFF0F0",
"1. c #EFF0F1",
"2. c #EEF1F1",
"3. c gray94",
"4. c #F0F1F1",
"5. c #F1F1F2",
"6. c #F1F2F2",
"7. c gray95",
"8. c #F2F3F3",
"9. c #F4F3F3",
"0. c #F2F3F4",
"q. c #F3F4F4",
"w. c #F4F4F4",
"e. c #F4F6F5",
"r. c #F5F5F6",
"t. c #F5F6F6",
"y. c #F6F6F6",
"u. c #F6F7F7",
"i. c #F7F8F8",
"p. c #F9F8F8",
"a. c #F9F9F9",
"s. c #FBFBFB",
"d. c gray99",
"f. c #FDFDFD",
"g. c #FDFDFE",
"h. c #FEFEFE",
"j. c #FEFEFF",
"k. c gray100",
"l. c None",
/* pixels */
"l.l.l.l.l.l.l.l.l.l.l.l.l.l.l.l.",
"l.l.l.l.l.l.U S S U l.l.l.l.l.l.",
"l.l.l.l.X.;.9.9.9.9.;.O.l.l.l.l.",
"l.l.l.} 2.2.e.9.9.9.2.:.o.l.l.l.",
"l.l.! h.9.h.h.2.2.h.h.9.9.} l.l.",
"l.l.;.9.h.h.9.9.9.9.h.h.h.;.l.l.",
"l.0 ! o.;.9.9.9.2.9.9.;.} ! a l.",
"l.> a b b U 9.;.;.9.o.a a a , l.",
"l.* 8 a 8 a b U } C 8 8 8 8 * l.",
"l.* 8 a a S T ..u o.} D N a * l.",
"l.@ 8 D } T } M 0 } ;.} ! C * l.",
"l.l.a ! } } L < : S } } ;.m l.l.",
"l.l.# 2.3...b ; : 0 } 9.} 2 l.l.",
"l.l.l.2 ..T b 5 2 a S } 2 l.l.l.",
"l.l.l.l.+ 5 b b b S : O l.l.l.l.",
"l.l.l.l.l.l.  o X   l.l.l.l.l.l."
};
