/* XPM */
static char *graphic[] = {
/* width height num_colors chars_per_pixel */
"32 32 50 1 ",
"  c gray12",
". c gray13",
"X c #343434",
"o c #3F3F3F",
"O c #494949",
"+ c #4F5050",
"@ c gray38",
"# c DimGray",
"$ c #737677",
"% c #8F9292",
"& c #959595",
"* c #969898",
"= c #9E9E9E",
"- c #9DA0A1",
"; c #A3A4A4",
": c #A3A7A8",
"> c #A6AAAB",
", c #ACADAD",
"< c #ADB2B3",
"1 c #B3B4B4",
"2 c #B5B6B8",
"3 c #B5BABC",
"4 c #BABCBC",
"5 c #BABFC0",
"6 c #BEC2C3",
"7 c #C3C5C5",
"8 c #C8C8C7",
"9 c #C3C7C8",
"0 c #C5CACB",
"q c #CACCCC",
"w c #CBCFD0",
"e c #CED1D2",
"r c #D3D5D5",
"t c #D3D7D8",
"y c #D6D9DA",
"u c #DBDCDD",
"i c #DDDFE0",
"p c #DEE1E1",
"a c #E3E4E4",
"s c #E5E7E8",
"d c #E6E8E9",
"f c #EBECEC",
"g c #EEEFF0",
"h c #EEF1F2",
"j c #F3F4F4",
"k c #F8F7F7",
"l c #F7F7F9",
"z c #F6F8F9",
"x c #FCFCFC",
"c c None",
/* pixels */
"cccccccccccccccccccccccccccccccc",
"ccccccccccccccisifaccccccccccccc",
"cccccccccccaayrryeryaacccccccccc",
"cccccccccfaafjjjkgxksapfcccccccc",
"ccccccccfufjgjfhsjgkfjjafccccccc",
"ccccccjufxjffjkjkkkggfjfgigccccc",
"cccccfughagkkxzfsgkkkkfjggyscccc",
"cccccuxxjjjxxxjffgjxxxjjkxxicccc",
"ccccauxxfxxxxxxjfhxxxxxxfxxuaccc",
"cccctxffjxxxxxxjfjxxxxxxkffzrccc",
"cccqpxxhxxxxgjgjfhjjjxxxkjxxpqcc",
"ccc7phjffjxjkjjjfzfjkfxjffhfp6cc",
"ccc9tiuuusgazxkfsfkxzgssptpptq3c",
"cc33wqpwwtrffggsjajffftrwwp0w63c",
"cc<333w6700ffzxzuxdkzht976w533<c",
"cc>135wq00000wpfjfuww0w000w36<>c",
"cc:13601147yi77rraje767q1<036<:c",
"cc><66e07ryerajj6aaagsis67r46<:c",
"cc>360e64wreyugu,7aassaueqpq04:c",
"ccc<66t6zjj8aujariaikjjjkqaq01$c",
"ccc36eesrrupaar4,18aaaautfppr3cc",
"ccc-2rpeaupaau81114raaauftfs6:cc",
"cccc9rpfgaaaar41,148uaafxfppqccc",
"cccc%2hgfffauq411,17rafffhj4*ccc",
"ccccc40pkgfju741,1448gggza74cccc",
"ccccccrugaps8fr4118a7issftrXcccc",
"cccccccryusyrr1===188uyyuroccccc",
"cccccccc;88eu7yu1uaf4e6q:ccccccc",
"ccccccccc+71,=461,4=:>1Occcccccc",
"cccccccccccX#,,=&=,;@Xcccccccccc",
"ccccccccccccccc...cccccccccccccc",
"cccccccccccccccccccccccccccccccc"
};
