/* XPM */
static char *machinecoin64[] = {
/* columns rows colors chars-per-pixel */
"64 64 248 2 ",
"   c black",
".  c #010101",
"X  c #020202",
"o  c gray1",
"O  c #040404",
"+  c gray2",
"@  c #060606",
"#  c #070607",
"$  c #070707",
"%  c gray3",
"&  c #090909",
"*  c gray4",
"=  c #0B0B0B",
"-  c #0C0C0C",
";  c #0C0C0D",
":  c gray5",
">  c #0E0E0E",
",  c gray6",
"<  c #101010",
"1  c gray7",
"2  c #131313",
"3  c gray8",
"4  c #151515",
"5  c #161616",
"6  c gray9",
"7  c #181818",
"8  c #191919",
"9  c gray10",
"0  c #1B1B1B",
"q  c #1C1C1B",
"w  c gray11",
"e  c #1E1E1E",
"r  c gray12",
"t  c #202020",
"y  c gray13",
"u  c #232323",
"i  c gray14",
"p  c #252525",
"a  c gray15",
"s  c #272626",
"d  c #272727",
"f  c #282828",
"g  c gray16",
"h  c #2A2A2A",
"j  c gray17",
"k  c #2D2D2D",
"l  c gray18",
"z  c #2F2F2F",
"x  c gray19",
"c  c #313131",
"v  c #323232",
"b  c gray20",
"n  c #343434",
"m  c #353535",
"M  c gray21",
"N  c #373737",
"B  c #373738",
"V  c gray22",
"C  c #393938",
"Z  c #393939",
"A  c #3A3A3A",
"S  c gray23",
"D  c #3C3C3C",
"F  c gray24",
"G  c #3E3E3E",
"H  c #3F3F3F",
"J  c gray25",
"K  c #414141",
"L  c gray26",
"P  c #434343",
"I  c #444444",
"U  c gray27",
"Y  c #464646",
"T  c gray28",
"R  c #484848",
"E  c gray29",
"W  c #4B4B4B",
"Q  c #4C4C4C",
"!  c #4E4E4E",
"~  c gray31",
"^  c #505050",
"/  c #515151",
"(  c gray32",
")  c #535353",
"_  c gray33",
"`  c #555555",
"'  c #565656",
"]  c gray34",
"[  c #585858",
"{  c gray35",
"}  c #5A5959",
"|  c #5A5A5A",
" . c #5B5B5B",
".. c gray36",
"X. c #5D5D5D",
"o. c gray37",
"O. c #5F5F5F",
"+. c #606060",
"@. c gray38",
"#. c gray39",
"$. c #646464",
"%. c #656565",
"&. c gray40",
"*. c #676767",
"=. c #686868",
"-. c DimGray",
";. c #6A6A6A",
":. c gray42",
">. c #6B6B6C",
",. c #6C6C6C",
"<. c gray43",
"1. c #6F6F6F",
"2. c gray44",
"3. c #727272",
"4. c gray45",
"5. c #747474",
"6. c gray46",
"7. c #767676",
"8. c #777676",
"9. c #777777",
"0. c gray48",
"q. c #7B7B7B",
"w. c #7C7C7C",
"e. c gray49",
"r. c gray50",
"t. c #808080",
"y. c #818181",
"u. c #838383",
"i. c #848484",
"p. c gray52",
"a. c gray53",
"s. c #888888",
"d. c #898989",
"f. c gray54",
"g. c #8B8B8B",
"h. c gray55",
"j. c #8E8E8E",
"k. c gray56",
"l. c #909090",
"z. c #929292",
"x. c gray58",
"c. c #959595",
"v. c gray59",
"b. c #979797",
"n. c #989898",
"m. c #9B9B9B",
"M. c gray61",
"N. c #9D9D9D",
"B. c gray62",
"V. c #9F9F9F",
"C. c #A0A0A0",
"Z. c gray63",
"A. c #A2A2A2",
"S. c gray64",
"D. c #A4A4A4",
"F. c #A7A7A7",
"G. c gray66",
"H. c #A9A9A9",
"J. c #A9A9AA",
"K. c #AAAAAA",
"L. c gray67",
"P. c #ACACAC",
"I. c gray68",
"U. c #AEAEAE",
"Y. c #AFAFAF",
"T. c gray69",
"R. c #B1B1B1",
"E. c #B2B2B2",
"W. c #B4B4B4",
"Q. c gray71",
"!. c #B6B6B6",
"~. c #B7B7B7",
"^. c #B7B7B8",
"/. c #B9B9B9",
"(. c gray73",
"). c #BCBCBC",
"_. c gray74",
"`. c gray",
"'. c gray75",
"]. c #C0C0C0",
"[. c #C1C1C1",
"{. c gray76",
"}. c #C3C3C3",
"|. c gray77",
" X c #C5C5C5",
".X c #C6C6C6",
"XX c gray78",
"oX c #C8C8C8",
"OX c gray79",
"+X c #CACACA",
"@X c #CBCBCB",
"#X c gray80",
"$X c #CCCDCD",
"%X c #CDCDCD",
"&X c #CECECE",
"*X c gray81",
"=X c #D0D0D0",
"-X c gray82",
";X c #D2D2D2",
":X c gray83",
">X c #D5D4D4",
",X c #D5D5D5",
"<X c gray84",
"1X c #D7D7D7",
"2X c #D8D8D8",
"3X c gray85",
"4X c #DBDAD9",
"5X c #DADADA",
"6X c gray86",
"7X c gainsboro",
"8X c #DDDDDD",
"9X c gray87",
"0X c #DFDFDF",
"qX c gray88",
"wX c #E1E1E1",
"eX c #E2E2E2",
"rX c gray89",
"tX c gray90",
"yX c #E6E6E6",
"uX c #E7E7E7",
"iX c gray91",
"pX c #E9E9E9",
"aX c #EAEAEA",
"sX c gray92",
"dX c #ECECEB",
"fX c #ECECEC",
"gX c gray93",
"hX c #EEEEEE",
"jX c #EFEFEF",
"kX c gray94",
"lX c #F1F1F1",
"zX c gray95",
"xX c #F3F3F3",
"cX c #F4F4F4",
"vX c gray96",
"bX c #F6F6F6",
"nX c gray97",
"mX c #F8F8F8",
"MX c #F9F9F9",
"NX c gray98",
"BX c #FBFBFB",
"VX c #FCFCFB",
"CX c gray99",
"ZX c #FDFDFD",
"AX c #FEFEFE",
"SX c #FFFFFE",
"DX c white",
"FX c None",
/* pixels */
"FXFXFXFXFXFXFXFXFXFXFXFXFXFXFXFXFXFXFXFXFXFXFXFXFXFXFXFXFXFXFXFXFXFXFXFXFXFXFXFXFXFXFXFXFXFXFXFXFXFXFXFXFXFXFXFXFXFXFXFXFXFXFXFX",
"FXFXFXFXFXFXFXFXFXFXFXFXFXFXFXFXFXFXFXFXFXFXFXFXFXFXFXFXFXFXFXFXFXFXFXFXFXFXFXFXFXFXFXFXFXFXFXFXFXFXFXFXFXFXFXFXFXFXFXFXFXFXFXFX",
"FXFXFXFXFXFXFXFXFXFXFXFXFXFXFXFXFXFXFXFXFXFXFXFXFXFXDXDXDXDXmXmXbXVXDXDXDXDXDXDXDXFXFXFXFXFXFXFXFXFXFXFXFXFXFXFXFXFXFXFXFXFXFXFX",
"FXFXFXFXFXFXFXFXFXFXFXFXFXFXFXFXFXFXFXFXFXFXDXDXDXbX6XY.a.$.E J J _ O.,.g.H.oXpXmXDXDXDXFXFXFXFXFXFXFXFXFXFXFXFXFXFXFXFXFXFXFXFX",
"FXFXFXFXFXFXFXFXFXFXFXFXFXFXFXFXFXFXFXFXDXDXkX).q.J e O                     1 h _ x.;XbXDXDXFXFXFXFXFXFXFXFXFXFXFXFXFXFXFXFXFXFX",
"FXFXFXFXFXFXFXFXFXFXFXFXFXFXFXFXFXFXDXDXtXx.D ,                                     3 ! F.pXDXDXFXFXFXFXFXFXFXFXFXFXFXFXFXFXFXFX",
"FXFXFXFXFXFXFXFXFXFXFXFXFXFXFXFXFXDXkXn.k                                                 M n.hXDXDXFXFXFXFXFXFXFXFXFXFXFXFXFXFX",
"FXFXFXFXFXFXFXFXFXFXFXFXFXFXFXDXDX].E O                                                     O D Q.DXDXFXFXFXFXFXFXFXFXFXFXFXFXFX",
"FXFXFXFXFXFXFXFXFXFXFXFXFXFXDXkXu.3                                                             , q.pXDXFXFXFXFXFXFXFXFXFXFXFXFX",
"FXFXFXFXFXFXFXFXFXFXFXFXFXDX0X[ o                                                                   E 6XDXFXFXFXFXFXFXFXFXFXFXFX",
"FXFXFXFXFXFXFXFXFXFXFXFXDX;XA                                                                         x oXDXFXFXFXFXFXFXFXFXFXFX",
"FXFXFXFXFXFXFXFXFXFXFXDX:XM                                                                             k *XDXFXFXFXFXFXFXFXFXFX",
"FXFXFXFXFXFXFXFXFXFXDX:XA                                                                                 x 6XDXFXFXFXFXFXFXFXFX",
"FXFXFXFXFXFXFXFXFXDXpXI                                                                                     I pXDXFXFXFXFXFXFXFX",
"FXFXFXFXFXFXFXFXFXbX,.                            M ^ ~ $.2.8.[ O                                             8.mXDXFXFXFXFXFXFX",
"FXFXFXFXFXFXFXFXDXA.&                           H eXDXBXDXDXDX:X7                                             , R.DXFXFXFXFXFXFX",
"FXFXFXFXFXFXFXDX6Xj                           t XXDXDXDXDXDXDXeXe                                               M tXDXFXFXFXFXFX",
"FXFXFXFXFXFXFXDX2.                          , H.DXDXDXDXDXDXDXeXe                                                 a.DXFXFXFXFXFX",
"FXFXFXFXFXFXDXXX3                           e.mXDXDXDXDXDXDXDX0Xe                                                 h 0XDXFXFXFXFX",
"FXFXFXFXFXFXDX$.                          _ hXDXmXbXDXDXDXDXDXeXe                     O   o   o                     t.DXFXFXFXFX",
"FXFXFXFXFXDX*X7   I #.e                 M 6XDXDX).H.DXDXDXDXDXeXe               & ,.H.H.H.H.H.S.h                   k tXDXFXFXFX",
"FXFXFXFXFXDXe.  O R.DX6Xn.! 3         3 ).DXDXeXD h.DXDXDXDXDXeXe               O.bXDXDXDXDXDXxXA                   O H.DXFXFXFX",
"FXFXFXFXDXhXA   1 Q.bXDXDXbX*Xg.D , & x.DXDXbX#.O z.DXDXDXDXDX0Xe             J eXDXDXDXDXDXDXkXM                     [ DXDXFXFX",
"FXFXFXFXDXXX,     , J h.;XmXDXDXbX).A.bXDXDXz.&   z.DXDXDXDXDXeXe           d *XDXDXDXDXDXDXDXkXA                     d eXDXFXFX",
"FXFXFXFXDXg.  & q.[ 7   1 ! N.0XmXDXDXDXDXtX! ,   h.DXDXDXDXDXeXe         1 R.DXDXDXDXDXDXDXDXbXJ                     & /.DXFXFX",
"FXFXFXFXmXE   A kXDX6XN.! 1   7 a.DXDXDXDXDXsX).8.Y.DXDXDXDXDXhXx       & g.DXDXbX*XDXDXDXDXDXDX_                       g.DXFXFX",
"FXFXFXDXtXd   d A.eXDXDXmX;Xg.J F.DXDXeX:XBXDXDXDXmXDXDXDXDXDXkXA       ,.bXDXDXN.q.DXDXDXDXDXDX[                       O.DXFXFX",
"FXFXFXDXoX,     O d ;.).kXDXDXbXDXDXbX_ e [ H.tXDXDXDXDXDXDXDXbXM     E pXDXDXXXe ;.DXDXDXDXDXmX[                       A kXDXFX",
"FXFXFXDXY.O           , D g.pXDXDXDXbX).8.x 1 j ,.6XDXDXDXDXDXmXt.d x :XDXDXtXI   e.DXDXDXDXDXDX^                       d tXDXFX",
"FXFXFXDXz.                A eXDXmXpXDXDXDXpXR.;.h H.DXDXDXDXDXDXDXeX0XDXDXbX;.O O h.DXDXDXDXDXbXI                       7 6XDXFX",
"FXFXFXDXt.              d XXDXDXH.x ;.).kXDXDXDXtXhXDXDXDXDXDXDXmXDXDXDXDXpX;.d & g.DXDXDXDXDXmXE                       , *XDXFX",
"FXFXFXDXq.            M XXDXDXH.7     , D g.*XbXDXDXDXDXDXDXDXpXXXDXDXDXDXDXmX0XA.).DXDXDXDXDXDX_                       , *XDXFX",
"FXFXFXDXq.        d ,.6XDXDXqXd             3 ! N.hXDXDXDXDXDXmXkXDXmXR.Q.hXDXDXDXDXDXDXDXDXDXDX_                       1 *XDXFX",
"FXFXFXDXq.    3 z.eXDXDXDXDX*X1                 & Q.DXDXDXDXDXDXDXDX0Xx , A e.XXbXDXDXDXDXDXDXDX_                       1 *XDXFX",
"FXFXFXDXe.    M ;XmXDXDXDXDXpXM                 O R.DXDXDXDXDXDXDXDXmX*Xh.J 3 3 I ].DXDXDXDXDXDXY.E 3                   1 ;XDXFX",
"FXFXFXDXx.    o 7  .Y.pXDXDXDX/.3               O Y.DXDXDXDXDXDXpX0XDXDXDXbXoXe.A x.DXDXDXDXDXDXDXbX*Xa.D ,             t eXDXFX",
"FXFXFXDX^.O         & x e.*XbXDXz.O             & ].DXDXDXDXDXkX_ e O.Y.pXDXDXDXhXpXDXDXDXDXDXDXbXDXDXDXkX].2.x &       M kXDXFX",
"FXFXFXDX;X3               3 ! Y.0XI             d 0XDXDXDXDXDXoX,     O k 2.XXkXDXDXDXDXDXDXDXbX,.t.*XbXDXDXDXpXY.O.,   ! mXDXFX",
"FXFXFXFXpXx                   O d 3       & x D A.DXDXDXDXDXDXoX,           , D g.tXDXDXDXDXDXbX^   1 E x.0XmXDXDX*X3   q.DXFXFX",
"FXFXFXFXDX#.                              M tXmXDXDXDXDXDXDXDX0Xe                 H.DXDXDXDXDXDXpXH.[ 3   7 [ H.tXa.    F.DXFXFX",
"FXFXFXFXDXA.                              1 O.H.iXDXDXDXDXDXDXpXk                 H.DXDXDXDXDXDXDXDXmX6Xx.E 1   d 7   7 :XDXFXFX",
"FXFXFXFXDX6Xe                                 O k 8.].bXDXDXDXDXO.              O Y.DXDXDXDXDXbXH.;XmXDXDXbXoXt.h     E mXDXFXFX",
"FXFXFXFXFXBX#.                                      1 J h.:XDXDX*Xt               Y.DXDXDXDXDXkXA 3 ! V.eXDXDXDX8.    z.DXFXFXFX",
"FXFXFXFXFXDX/.-                                           7 O.].hX#.            3 ;XDXDXDXDXDXbXA     O d $.~.4XV   e :XDXFXFXFX",
"FXFXFXFXFXFXbX^                                               1 x 1       & M h a.mXDXDXDXDXDXmX^           & d &   ,.DXFXFXFXFX",
"FXFXFXFXFXFXDX/.,                                                         D pXkXDXDXDXDXDXDXDXDX[                 7 ;XDXFXFXFXFX",
"FXFXFXFXFXFXDXbX[                                                         7 2.).hXDXDXDXDXDXDXDX#.                8.DXDXFXFXFXFX",
"FXFXFXFXFXFXFXDX*X7                                                           & A a.;XbXDXDXDXDXF.&             h 0XDXFXFXFXFXFX",
"FXFXFXFXFXFXFXFXDXg.O                                                               3 ^ N.eXDXDXbX[           & A.DXFXFXFXFXFXFX",
"FXFXFXFXFXFXFXFXDXkX_                                                                     d 2.oXmXH.O         #.bXDXFXFXFXFXFXFX",
"FXFXFXFXFXFXFXFXFXDX6Xk                                                                       1 D M         D eXDXFXFXFXFXFXFXFX",
"FXFXFXFXFXFXFXFXFXFXDX).d                                                                                 h *XDXFXFXFXFXFXFXFXFX",
"FXFXFXFXFXFXFXFXFXFXFXDX).d                                                                             t ).DXFXFXFXFXFXFXFXFXFX",
"FXFXFXFXFXFXFXFXFXFXFXFXDX).d                                                                         h /.DXDXFXFXFXFXFXFXFXFXFX",
"FXFXFXFXFXFXFXFXFXFXFXFXFXDX].M                                                                     D oXDXDXFXFXFXFXFXFXFXFXFXFX",
"FXFXFXFXFXFXFXFXFXFXFXFXFXFXDXeXO.O                                                             & $.eXDXFXFXFXFXFXFXFXFXFXFXFXFX",
"FXFXFXFXFXFXFXFXFXFXFXFXFXFXFXDXbXx.d                                                         h A.bXDXFXFXFXFXFXFXFXFXFXFXFXFXFX",
"FXFXFXFXFXFXFXFXFXFXFXFXFXFXFXFXDXDX:X>.3                                                 7 q.0XDXDXFXFXFXFXFXFXFXFXFXFXFXFXFXFX",
"FXFXFXFXFXFXFXFXFXFXFXFXFXFXFXFXFXFXDXmX*X,.t                                         h q.*XmXDXFXFXFXFXFXFXFXFXFXFXFXFXFXFXFXFX",
"FXFXFXFXFXFXFXFXFXFXFXFXFXFXFXFXFXFXFXFXDXDX0Xb.E 7                           O e _ A.eXDXDXFXFXFXFXFXFXFXFXFXFXFXFXFXFXFXFXFXFX",
"FXFXFXFXFXFXFXFXFXFXFXFXFXFXFXFXFXFXFXFXFXFXDXDXbX:XA.$.D t 3 , < 7 h J _ 8.h.R.0XmXDXDXFXFXFXFXFXFXFXFXFXFXFXFXFXFXFXFXFXFXFXFX",
"FXFXFXFXFXFXFXFXFXFXFXFXFXFXFXFXFXFXFXFXFXFXFXFXFXDXDXDXkXeX;X;X*X2XpXbXDXDXDXDXDXFXFXFXFXFXFXFXFXFXFXFXFXFXFXFXFXFXFXFXFXFXFXFX",
"FXFXFXFXFXFXFXFXFXFXFXFXFXFXFXFXFXFXFXFXFXFXFXFXFXFXFXFXFXDXDXDXDXDXDXFXFXFXFXFXFXFXFXFXFXFXFXFXFXFXFXFXFXFXFXFXFXFXFXFXFXFXFXFX",
"FXFXFXFXFXFXFXFXFXFXFXFXFXFXFXFXFXFXFXFXFXFXFXFXFXFXFXFXFXFXFXFXFXFXFXFXFXFXFXFXFXFXFXFXFXFXFXFXFXFXFXFXFXFXFXFXFXFXFXFXFXFXFXFX"
};
