/* XPM */
static char *machinecoin128[] = {
/* columns rows colors chars-per-pixel */
"128 128 47 1 ",
"  c #000000",
". c #0B0B0B",
"X c #10100F",
"o c #131313",
"O c #1C1C1C",
"+ c #232323",
"@ c #2C2C2C",
"# c #302F2F",
"$ c #343434",
"% c #383837",
"& c #3B3B3B",
"* c #444444",
"= c #484747",
"- c #4B4B4B",
"; c #545554",
": c #5C5C5C",
"> c #636363",
", c #6C6C6C",
"< c #737373",
"1 c #7B7B7B",
"2 c #80807F",
"3 c #838383",
"4 c #8B8B8B",
"5 c #90908F",
"6 c #939494",
"7 c #989797",
"8 c #9D9D9D",
"9 c #A3A3A3",
"0 c #ABABAB",
"q c #B4B4B4",
"w c #B8B6B5",
"e c #BBBBBB",
"r c #C3C3C3",
"t c #CCCCCC",
"y c #D3D3D3",
"u c #DBDBDB",
"i c #E3E3E3",
"p c #E8E6E5",
"a c #E8E8E7",
"s c #E7E7E8",
"d c #ECECEC",
"f c #F2F0EF",
"g c #F0EFF0",
"h c #F4F4F4",
"j c #FBF8F6",
"k c #FFFFFF",
"l c None",
/* pixels */
"llllllllllllllllllllllllllllllllllllllllllllllllllllllllllllllllllllllllllllllllllllllllllllllllllllllllllllllllllllllllllllllll",
"llllllllllllllllllllllllllllllllllllllllllllllllllllllllllllllllllllllllllllllllllllllllllllllllllllllllllllllllllllllllllllllll",
"llllllllllllllllllllllllllllllllllllllllllllllllllllllllllllllllllllllllllllllllllllllllllllllllllllllllllllllllllllllllllllllll",
"lllllllllllllllllllllllllllllllllllllllllllllllllllllllllllkkkkkkkkkkkkkklllllllllllllllllllllllllllllllllllllllllllllllllllllll",
"lllllllllllllllllllllllllllllllllllllllllllllllllllllkkkkkkkkkkkkkkkkkkkkkkkkkklllllllllllllllllllllllllllllllllllllllllllllllll",
"lllllllllllllllllllllllllllllllllllllllllllllllllkkkkkkkkkkkkkkkkkkkkkkkkkkkkkkkkkklllllllllllllllllllllllllllllllllllllllllllll",
"llllllllllllllllllllllllllllllllllllllllllllllkkkkkkkkkjiirq4><,,,48qqquidkkkkkkkkkkkkllllllllllllllllllllllllllllllllllllllllll",
"lllllllllllllllllllllllllllllllllllllllllllkkkkkkkkkir6;@Oo           .o+$:,9wijkkkkkkkkklllllllllllllllllllllllllllllllllllllll",
"lllllllllllllllllllllllllllllllllllllllllkkkkkkkae4;@.                       .O-<qikkkkkkkklllllllllllllllllllllllllllllllllllll",
"lllllllllllllllllllllllllllllllllllllllkkkkkkdq1@.                               .@;8ujkkkkkklllllllllllllllllllllllllllllllllll",
"lllllllllllllllllllllllllllllllllllllkkkkkku4%.                                      +:9dkkkkkklllllllllllllllllllllllllllllllll",
"llllllllllllllllllllllllllllllllllllkkkkjt,+                                           .%4ykkkkkklllllllllllllllllllllllllllllll",
"llllllllllllllllllllllllllllllllllkkkkky,o                                                O1ukkkkkllllllllllllllllllllllllllllll",
"lllllllllllllllllllllllllllllllllkkkki4O                                                    O1ukkkkkllllllllllllllllllllllllllll",
"lllllllllllllllllllllllllllllllkkkkj0%                                                        @4dkkkklllllllllllllllllllllllllll",
"llllllllllllllllllllllllllllllkkkku:.                                                          .-tkkkkklllllllllllllllllllllllll",
"llllllllllllllllllllllllllllkkkkj9@                                                              O1hkkkkllllllllllllllllllllllll",
"lllllllllllllllllllllllllllkkkki>.                                                                .:ukkkklllllllllllllllllllllll",
"llllllllllllllllllllllllllkkkkt=                                                                    @qkkkkllllllllllllllllllllll",
"lllllllllllllllllllllllllkkkjq@                                                                      O9jkkklllllllllllllllllllll",
"llllllllllllllllllllllllkkkj6o                                                                        .<jkkkllllllllllllllllllll",
"lllllllllllllllllllllllkkkj4.                                                                          .<jkkklllllllllllllllllll",
"llllllllllllllllllllllkkkj4.                                                                             <hkkkllllllllllllllllll",
"lllllllllllllllllllllkkkk5.                                                                              .<jkkklllllllllllllllll",
"llllllllllllllllllllkkkk6.                                                                                .<jkkkllllllllllllllll",
"llllllllllllllllllllkkj6.                                                                                  .9kkkllllllllllllllll",
"lllllllllllllllllllkkk9.                                                                                    Oqkkklllllllllllllll",
"llllllllllllllllllkkky+                                                                                      Otkkkllllllllllllll",
"lllllllllllllllllkkka;                                  ....o...                                              ;hkkklllllllllllll",
"lllllllllllllllllkkj>                             $444440tyttyy4                                               1kkklllllllllllll",
"llllllllllllllllkkk8.                            Orkkkkkkkkkkkke.                                              oekkkllllllllllll",
"lllllllllllllllkkku@                            .9kkkkkkkkkkkkkuO                                               -dkkklllllllllll",
"lllllllllllllllkkj<                             <jkkkkkkkkkkkkkiO                                                1kkklllllllllll",
"llllllllllllllkkk9.                            -akkkkkkkkkkkkkkiO                                                Oykkkllllllllll",
"llllllllllllllkka%                            %ykkkkkkkkkkkkkkkiO                                                 :jkkllllllllll",
"lllllllllllllkkk4                            oekkkkkkkkkkkkkkkkiO                                                 .qkkklllllllll",
"llllllllllllkkku+                           .5kkkkkkkkkkkkkkkkkiO                                                  ;jkklllllllll",
"llllllllllllkkk1                            >jkkkkkkkkkkkkkkkkku+                                                  .qkkkllllllll",
"llllllllllllkky+                           %ukkkkkkkkkkkkkkkkkkiO                                                   :jkkllllllll",
"lllllllllllkkk1                           +tkkkkkkijkkkkkkkkkkkiO                                                   .ekkklllllll",
"lllllllllllkki@    +o                    o0kkkkkku,dkkkkkkkkkkkiO                 .->>:>>>>>>>>,$                    >jkklllllll",
"llllllllllkkk4    +tt4%.                 1jkkkkkh;$gkkkkkkkkkkkiO                .2jkkkkkkkkkkkk;                    Oykkkllllll",
"llllllllllkkd&    ;jkkde,+.             :hkkkkkk5.%gkkkkkkkkkkkuO                ;dkkkkkkkkkkkkk;                     4kkkllllll",
"lllllllllkkkr.    6kkkkkkuq;+          @ukkkkkkeO %gkkkkkkkkkkki+               @ukkkkkkkkkkkkkk:                     *hkkklllll",
"lllllllllkkk1    Oykkkkkkkkju6=o      Oqkkkkkku$  %hkkkkkkkkkkkiO              +ekkkkkkkkkkkkkkk;                     .ekkklllll",
"lllllllllkkd%    o4yjkkkkkkkkkjy3&o  .7kkkkkkg:...&hkkkkkkkkkkkiO             oqkkkkkkkkkkkkkkkk;                      3kkklllll",
"llllllllkkkr.      o=5ykkkkkkkkkkje<$<jkkkkkk3... %hkkkkkkkkkkkiO             3jkkkkkkkkkkkkkkkk:                      *jkkkllll",
"llllllllkkk3          O;7ikkkkkkkkkkdhkkkkkkeO .. %hkkkkkkkkkkkiO            ;dkkkkkkkkkkkkkkkkk;                      oykkkllll",
"llllllllkkj=    @=.     .O>qakkkkkkkkkkkkkku% .. .%gkkkkkkkkkkkiO           =ikkkkkkkkkkkkkkkkkk;                       9kkkllll",
"llllllllkkuO   .eje2%.     .@<rdkkkkkkkkkkky,#X   %gkkkkkkkkkkki+          +tkkkkkkkkkkkkkkkkkkk<                       >kkkllll",
"lllllllkkk8    %dkkkdq<@.     .%3ykkkkkkkkkkkiq,$.$gkkkkkkkkkkkd%         .8kkkkkkhhkkkkkkkkkkkk9                       &hkkklll",
"lllllllkkk:    1kkkkkkki0>@      4kkkkkkkkkkkkkjs03hkkkkkkkkkkkk;        .4kkkkkkj2rkkkkkkkkkkkk8                       Oukkklll",
"lllllllkkj*    1gkkkkkkkkji5;o  @ikkkkkkkkkkkkkkkkkkkkkkkkkkkkkk:        ,jkkkkkk0Oekkkkkkkkkkkk9                       .qkkklll",
"lllllllkkuO    .$4tjkkkkkkkkjy3-ekkkkkk90skkkkkkkkkkkkkkkkkkkkkk;       =akkkkkkt@.rkkkkkkkkkkkk8                        8kkklll",
"lllllllkkq.       o-6ikkkkkkkkkjkkkkkkqO.#1ehkkkkkkkkkkkkkkkkkkk:      @tkkkkkka* .rkkkkkkkkkkkk8                        ,kkklll",
"llllllkkk7           O,ejkkkkkkkkkkkka%  . o-4yjkkkkkkkkkkkkkkkk;     oekkkkkkj<...rkkkkkkkkkkkk9                        -jkklll",
"llllllkkk4             .*3uhkkkkkkkkkhq>$... .O;9ijkkkkkkkkkkkkk,    .6kkkkkkk8o .Xrkkkkkkkkkkkk7                        @akklll",
"llllllkkk;                O-ekkkkkkkkkkkiq>+. . .@3jkkkkkkkkkkkki6-O ,jkkkkkkt+...+ikkkkkkkkkkkk6                        @akklll",
"llllllkkj=                 .qkkkkkkkkkkkkkju7>+.  *hkkkkkkkkkkkkkkjy0dkkkkkki- .. $gkkkkkkkkkkkk<                        Oikkkll",
"llllllkks@                .6kkkkkkadkkkkkkkkkky7;O<kkkkkkkkkkkkkkkkkkkkkkkkh,. .. $gkkkkkkkkkkkk,                        .ekkkll",
"llllllkki+                >jkkkkkr@&7ukkkkkkkkkkjytkkkkkkkkkkkkkkkkkkkkkkkkeO. .. #dkkkkkjkkkkkk,                        .ekkkll",
"llllllkkuO               :dkkkkky%  .+<ehkkkkkkkkkkkkkkkkkkkkkkkkkkkkkkkkkkht2&o. $dkkkkkkkkkkkk4                         ekkkll",
"llllllkkuO             .>dkkkkky%      .&3tjkkkkkkkkkkkkkkkkkkkd7dkkkkkkkkkkkkhr3&*gkkkkkkkkkkkk8                        .qkkkll",
"llllllkkuO            .6jkkkkkt#          o-8ujkkkkkkkkkkkkkkkku:ikkkkkkkkkkkkkkkgrjkkkkkkkkkkkk8                         qkkkll",
"llllllkkuo           $8kkkkkkh;              O>0ijkkkkkkkkkkkkkhukkkkkkajkkkkkkkkkkkkkkkkkkkkkkk8                        .qkkkll",
"llllllkkuO        o=6ikkkkkkke.                .+1ukkkkkkkkkkkkkkkkkkke@>qdjkkkkkkkkkkkkkkkkkkkk9                         ekkkll",
"llllllkkuO      O1tjkkkkkkkkke                    <kkkkkkkkkkkkkkkkkky$. .$<rgkkkkkkkkkkkkkkkkkk8                         ekkkll",
"llllllkkuo     +ekkkkkkkkkkkkq.                   <kkkkkkkkkkkkkkkkkk0O. .. o&3tjkkkkkkkkkkkkkkk8                        .qkkkll",
"llllllkkuO     4kkkkkkkkkkkkkyO                   <kkkkkkkkkkkkkkkkkkku6-+. . .O=8ukkkkkkkkkkkkkq+.                      .ekkkll",
"llllllkkuO     -9ikkkkkkkkkkkk1                   <kkkkkkkkkkkkkkkkkkkkkjy4=o..  .&dkkkkkkkkkkkkku0;O                    .rkkkll",
"llllllkki@      .@<rhkkkkkkkkkd:                  <kkkkkkkkkkkkkkkkkkkkkkkkht4*.. %dkkkkkkkkkkkkkkkjy6=o                 Oukkkll",
"llllllkkk-         o-8ukkkkkkkky@                 <kkkkkkkkkkkkkkyedkkkkkkkkkkge1$&hkkkkkkkkkkkkkkkkkkht4&.              @akklll",
"llllllkkk<            +,rdkkkkkk9o                1kkkkkkkkkkkkkr@.%1tjkkkkkkkkkkatjkkkkkkkkkkkkkkkkkkkkkhe1+            &hkklll",
"llllllkkk6              .%6ujkkkk6.              .qkkkkkkkkkkkki%    o-6ukkkkkkkkkkkkkkkkkkkkkkkjkkkkkkkkkkkiq>O         ,kkklll",
"lllllllkk9                 O;qjkkg-              .rkkkkkkkkkkkk0        O>0ikkkkkkkkkkkkkkkkkkkk43thkkkkkkkkkkju9-O      ,kkklll",
"lllllllkkyo                  .=7ijeo             =dkkkkkkkkkkkk0          .+1rhkkkkkkkkkkkkkkkkk; o*6ujkkkkkkkkkkju3O    8kkklll",
"lllllllkkh%                    .+%@.            Oqkkkkkkkkkkkkk0             o&4yjkkkkkkkkkkkkkk:    +-9ijkkkkkkkkku+   orkkklll",
"lllllllkkk;                                o;-;<tkkkkkkkkkkkkkk0.               o-qkkkkkkkkkkkkk6o     .+,eakkkkkkk8    +ikkklll",
"llllllllkk6                                =jkjkkkkkkkkkkkkkkkkuO                 >kkkkkkkkkkkkkjy4*.     .@3rhkkkj-    -jkkklll",
"llllllllkkr.                               <kkkkkkkkkkkkkkkkkkkiO                 :kkkkkkkkkkkkkkkkhr3@.     .=4yjyO    1kkkllll",
"llllllllkkd%                               @1rjkkkkkkkkkkkkkkkka@                 >jkkkkkkkkkkkkkkkkkksq:+.     o-;    .qkkkllll",
"llllllllkkk1                                 o=5ukkkkkkkkkkkkkkk:                 >kkkkkkkkkkkkkkkkkkkkkki9-+          +ukkkllll",
"lllllllllkkq.                                   +:0akkkkkkkkkkkk4                 ,kkkkkkkkkkkkkijkkkkkkkkkju1=.       :kkklllll",
"lllllllllkkd%                                     .$1rjkkkkkkkkke.                <kkkkkkkkkkkkk,-9ukkkkkkkkkkgr<o     7kkklllll",
"lllllllllkkk2                                        o=6ujkkkkkkj1.               ,kkkkkkkkkkkkk; .+,9dkkkkkkkkkf&    +ykkklllll",
"llllllllllkkto                                          +-0ikkkkkd;               <kkkkkkkkkkkkk;    .#2tjkkkkkjw.    :kkkllllll",
"llllllllllkkk:                                            .@<ykkkke.              7kkkkkkkkkkkkk;       X;4ukkkj3    .9kkkllllll",
"llllllllllkkke.                                              O<thkr.             Oukkkkkkkkkkkkk:          O:0aa$    &dkkkllllll",
"lllllllllllkkj;                                                o*;@             .<jkkkkkkkkkkkkk3            .@-.   .7kkklllllll",
"lllllllllllkkkeX                                                           .::@&4hkkkkkkkkkkkkkk9                   @ikkklllllll",
"llllllllllllkkj:                                                           =hkdhkkkkkkkkkkkkkkkk8                   6kkkllllllll",
"llllllllllllkkkq.                                                          6kkkkkkkkkkkkkkkkkkkk8                  $ikkkllllllll",
"lllllllllllllkkj:                                                          -8ujkkkkkkkkkkkkkkkkk9                 .6kkklllllllll",
"lllllllllllllkkkrO                                                          .+,qdkkkkkkkkkkkkkkke.                *akkklllllllll",
"llllllllllllllkkk1                                                             .$1tjkkkkkkkkkkkka$               .qkkkllllllllll",
"llllllllllllllkkki%                                                               o;7ijkkkkkkkkkk7.              >jkkkllllllllll",
"lllllllllllllllkkk0.                                                                .O>qskkkkkkkkj:             @ukkklllllllllll",
"llllllllllllllllkkk1                                                                   .@1rjkkkkkkyO           .9kkkllllllllllll",
"llllllllllllllllkkki%                                                                     .-9akkkkk:           :jkkkllllllllllll",
"lllllllllllllllllkkkr@                                                                      .@6yjkk3          %ukkklllllllllllll",
"llllllllllllllllllkkk8.                                                                        O;11&         Orkkkllllllllllllll",
"llllllllllllllllllkkkj,                                                                                     .6kkkkllllllllllllll",
"lllllllllllllllllllkkkd:                                                                                   .1hkkklllllllllllllll",
"llllllllllllllllllllkkkd:                                                                                  ,hkkkllllllllllllllll",
"lllllllllllllllllllllkkki;                                                                                ;dkkklllllllllllllllll",
"llllllllllllllllllllllkkka;                                                                              ;akkkllllllllllllllllll",
"llllllllllllllllllllllkkkks:                                                                            -ukkkkllllllllllllllllll",
"lllllllllllllllllllllllkkkka:                                                                          >akkkklllllllllllllllllll",
"lllllllllllllllllllllllllkkkd:.                                                                      .<hkkkkllllllllllllllllllll",
"llllllllllllllllllllllllllkkkh4o                                                                    O9jkkkklllllllllllllllllllll",
"lllllllllllllllllllllllllllkkkkq+                                                                  $qkkkklllllllllllllllllllllll",
"llllllllllllllllllllllllllllkkkkt;.                                                              .>ukkkkllllllllllllllllllllllll",
"lllllllllllllllllllllllllllllkkkkh4O                                                            @7jkkkklllllllllllllllllllllllll",
"llllllllllllllllllllllllllllllkkkkkt-.                                                        .:ukkkkkllllllllllllllllllllllllll",
"llllllllllllllllllllllllllllllllkkkkh8@                                                      ;ejkkkkllllllllllllllllllllllllllll",
"lllllllllllllllllllllllllllllllllkkkkki4+                                                  @8hkkkkklllllllllllllllllllllllllllll",
"lllllllllllllllllllllllllllllllllllkkkkki4@                                             .%6ukkkkklllllllllllllllllllllllllllllll",
"lllllllllllllllllllllllllllllllllllllkkkkki6*.                                        o;9dkkkkkkllllllllllllllllllllllllllllllll",
"llllllllllllllllllllllllllllllllllllllkkkkkkhe,+                                   .@1tjkkkkkkllllllllllllllllllllllllllllllllll",
"llllllllllllllllllllllllllllllllllllllllkkkkkkki8;O.                            X%,eakkkkkkkllllllllllllllllllllllllllllllllllll",
"lllllllllllllllllllllllllllllllllllllllllllkkkkkkji0,&o                   .+@%;5rdkkkkkkkkllllllllllllllllllllllllllllllllllllll",
"lllllllllllllllllllllllllllllllllllllllllllllkkkkkkkkdy0<-@O.. ...XO@&>130eiahkkkkkkkkklllllllllllllllllllllllllllllllllllllllll",
"llllllllllllllllllllllllllllllllllllllllllllllllkkkkkkkkkjduqqeeqqryihkkkkkkkkkkkkkkllllllllllllllllllllllllllllllllllllllllllll",
"lllllllllllllllllllllllllllllllllllllllllllllllllllkkkkkkkkkkkkkkkkkkkkkkkkkkkkkklllllllllllllllllllllllllllllllllllllllllllllll",
"lllllllllllllllllllllllllllllllllllllllllllllllllllllllkkkkkkkkkkkkkkkkkkkklllllllllllllllllllllllllllllllllllllllllllllllllllll",
"llllllllllllllllllllllllllllllllllllllllllllllllllllllllllllllllllllllllllllllllllllllllllllllllllllllllllllllllllllllllllllllll",
"llllllllllllllllllllllllllllllllllllllllllllllllllllllllllllllllllllllllllllllllllllllllllllllllllllllllllllllllllllllllllllllll",
"llllllllllllllllllllllllllllllllllllllllllllllllllllllllllllllllllllllllllllllllllllllllllllllllllllllllllllllllllllllllllllllll"
};
