/* XPM */
static char *machinecoin16[] = {
/* columns rows colors chars-per-pixel */
"16 16 111 2 ",
"   c black",
".  c gray1",
"X  c gray2",
"o  c #060606",
"O  c #090909",
"+  c gray4",
"@  c #0B0B0B",
"#  c #0C0C0C",
"$  c #0E0E0E",
"%  c #101010",
"&  c #111111",
"*  c gray7",
"=  c #131313",
"-  c gray8",
";  c #151515",
":  c gray9",
">  c #191919",
",  c gray10",
"<  c gray11",
"1  c #1D1D1D",
"2  c #1E1E1E",
"3  c gray12",
"4  c #232323",
"5  c gray14",
"6  c gray15",
"7  c #282828",
"8  c gray16",
"9  c gray19",
"0  c #313131",
"q  c #323232",
"w  c #343434",
"e  c #353535",
"r  c #373737",
"t  c #393939",
"y  c #3A3A3A",
"u  c gray23",
"i  c #3F3F3F",
"p  c gray25",
"a  c #414141",
"s  c #444444",
"d  c gray27",
"f  c #484848",
"g  c gray29",
"h  c gray31",
"j  c #515151",
"k  c #535353",
"l  c #555555",
"z  c #565656",
"x  c #585858",
"c  c #5B5B5B",
"v  c #5F5F5F",
"b  c gray39",
"n  c #646464",
"m  c DimGray",
"M  c #6D6D6D",
"N  c gray43",
"B  c #727272",
"V  c #747474",
"C  c gray46",
"Z  c gray47",
"A  c #797979",
"S  c #7C7C7C",
"D  c #808080",
"F  c #818181",
"G  c gray52",
"H  c #898989",
"J  c #8D8D8D",
"K  c gray57",
"L  c #979797",
"P  c #989898",
"I  c #9B9B9B",
"U  c gray61",
"Y  c #9F9F9F",
"T  c #A0A0A0",
"R  c gray63",
"E  c gray64",
"W  c #A5A5A5",
"Q  c #A7A7A7",
"!  c #AAAAAA",
"~  c gray68",
"^  c #AEAEAE",
"/  c #B1B1B1",
"(  c #B2B2B2",
")  c #B6B6B6",
"_  c #B7B7B7",
"`  c #B9B9B9",
"'  c gray73",
"]  c #BBBBBB",
"[  c #C1C1C1",
"{  c gray77",
"}  c #C6C6C6",
"|  c #CECECE",
" . c #D0D0D0",
".. c #D2D2D2",
"X. c LightGray",
"o. c #D7D7D7",
"O. c gray87",
"+. c #DFDFDF",
"@. c #E1E1E1",
"#. c gray89",
"$. c gray90",
"%. c #E6E6E6",
"&. c #E9E9E9",
"*. c #EAEAEA",
"=. c #ECECEC",
"-. c gray93",
";. c #F3F3F3",
":. c #F4F4F4",
">. c #F8F8F8",
",. c white",
"<. c None",
/* pixels */
"<.<.<.<.<.<.<.I U ( <.<.<.<.<.<.",
"<.<.<.<.U j 6 = = < u Z <.<.<.<.",
"<.<.<.S <             X d <.<.<.",
"<.<.F =   X d l +         d <.<.",
"<.<.q     l -.@.<   $ = X X C <.",
"<.Z b N x ^ } @.< 4 ' [ <   e <.",
"<.x C R @.) X.%.y I O.*.8   ; W ",
"<.q 4 ! U I @.>.X.) ' -.8   + K ",
"<.y H ' = , ' ,.o.W O.:.n ; + K ",
"<.p ; g < 6 | %.d v X.:.^ L j R ",
"<.m       < N ^ q X ( ;.H G l <.",
"<.<.8         $ + e } *.e = Z <.",
"<.<.F $             , x 8 p <.<.",
"<.<.<.Z ;               d <.<.<.",
"<.<.<.<.L g < + $ ; q B <.<.<.<.",
"<.<.<.<.<.<.^ J J R <.<.<.<.<.<."
};
