/* XPM */
static char *machinecoin32[] = {
/* columns rows colors chars-per-pixel */
"32 32 203 2 ",
"   c black",
".  c #010101",
"X  c #020202",
"o  c gray1",
"O  c #040404",
"+  c gray2",
"@  c #060606",
"#  c #070707",
"$  c #090909",
"%  c gray4",
"&  c #0B0B0B",
"*  c #0C0C0C",
"=  c gray5",
"-  c #0E0E0E",
";  c gray6",
":  c #101010",
">  c #111111",
",  c gray7",
"<  c #131313",
"1  c gray8",
"2  c #151515",
"3  c #161616",
"4  c gray9",
"5  c #181818",
"6  c #191919",
"7  c #1A1919",
"8  c gray10",
"9  c #1B1B1B",
"0  c gray11",
"q  c #1D1D1D",
"w  c gray12",
"e  c gray13",
"r  c #222222",
"t  c #232323",
"y  c #252525",
"u  c gray15",
"i  c #272727",
"p  c #282828",
"a  c #282929",
"s  c gray16",
"d  c #2A2A2A",
"f  c gray17",
"g  c #2C2C2C",
"h  c gray18",
"j  c #2F2F2F",
"k  c #313131",
"l  c #323232",
"z  c gray20",
"x  c #343434",
"c  c #353535",
"v  c gray21",
"b  c #373737",
"n  c gray22",
"m  c #3A3A3A",
"M  c gray23",
"N  c #3C3C3C",
"B  c gray24",
"V  c #3F3F3F",
"C  c #414141",
"Z  c gray26",
"A  c #464646",
"S  c #484848",
"D  c #494949",
"F  c gray29",
"G  c #4C4C4C",
"H  c gray30",
"J  c #4E4E4E",
"K  c gray31",
"L  c #515151",
"P  c gray32",
"I  c #535353",
"U  c gray33",
"Y  c #565656",
"T  c gray34",
"R  c #585858",
"E  c gray35",
"W  c #5A5A5A",
"Q  c #5B5B5B",
"!  c gray37",
"~  c #606060",
"^  c gray38",
"/  c #626262",
"(  c #656565",
")  c gray40",
"_  c #676767",
"`  c #686868",
"'  c DimGray",
"]  c #6C6C6C",
"[  c gray43",
"{  c #6F6F6F",
"}  c gray44",
"|  c #717171",
" . c gray45",
".. c #747474",
"X. c gray46",
"o. c #767676",
"O. c #777777",
"+. c gray47",
"@. c #797979",
"#. c #7C7C7C",
"$. c gray49",
"%. c #7E7E7E",
"&. c gray50",
"*. c #808080",
"=. c #818181",
"-. c gray51",
";. c #848484",
":. c #888888",
">. c #898989",
",. c gray55",
"<. c #8E8E8E",
"1. c #909090",
"2. c #929292",
"3. c #939393",
"4. c #959595",
"5. c gray59",
"6. c #979797",
"7. c #989898",
"8. c gray60",
"9. c #9A9A9A",
"0. c #9B9B9B",
"q. c gray61",
"w. c gray62",
"e. c #A0A0A0",
"r. c gray63",
"t. c #A2A2A2",
"y. c gray64",
"u. c #A4A4A4",
"i. c gray65",
"p. c #A7A7A7",
"a. c #A9A9A9",
"s. c #AAAAAA",
"d. c #ACACAC",
"f. c gray68",
"g. c #AEAEAE",
"h. c #AFAFAF",
"j. c gray69",
"k. c #B0B1B1",
"l. c #B1B1B1",
"z. c #B2B2B2",
"x. c #B4B4B4",
"c. c gray71",
"v. c #B7B7B7",
"b. c gray72",
"n. c #B9B9B9",
"m. c gray73",
"M. c #BBBBBB",
"N. c #BCBCBC",
"B. c gray74",
"V. c gray",
"C. c gray75",
"Z. c #C3C3C3",
"A. c gray77",
"S. c #C5C5C5",
"D. c #C6C6C6",
"F. c #C8C8C8",
"G. c gray79",
"H. c #CACACA",
"J. c #CBCBCB",
"K. c #CDCDCD",
"L. c #CECECE",
"P. c gray81",
"I. c gray82",
"U. c #D2D2D2",
"Y. c LightGray",
"T. c #D5D5D5",
"R. c gray84",
"E. c #D8D8D8",
"W. c #DADADA",
"Q. c gray86",
"!. c gainsboro",
"~. c #DDDDDD",
"^. c gray87",
"/. c #DFDFDF",
"(. c gray88",
"). c #E1E1E1",
"_. c #E2E2E2",
"`. c gray89",
"'. c #E4E4E4",
"]. c gray90",
"[. c #E9E9E9",
"{. c #EAEAEA",
"}. c gray92",
"|. c #EEEEEE",
" X c #EFEFEF",
".X c gray94",
"XX c #F1F1F1",
"oX c gray95",
"OX c #F3F3F3",
"+X c #F4F4F4",
"@X c gray96",
"#X c #F6F6F6",
"$X c gray97",
"%X c #F8F8F8",
"&X c #F9F9F9",
"*X c gray98",
"=X c #FBFBFB",
"-X c gray99",
";X c #FDFDFD",
":X c #FEFEFE",
">X c #FFFEFE",
",X c white",
"<X c None",
/* pixels */
"<X<X<X<X<X<X<X<X<X<X<X<X<X<X<X<X<X<X<X<X<X<X<X<X<X<X<X<X<X<X<X<X",
"<X<X<X<X<X<X<X<X<X<X<X<X|.F.a.4.8.u.b.W.OX<X<X<X<X<X<X<X<X<X<X<X",
"<X<X<X<X<X<X<X<X<X<XF.&.V 9 O       * r D :.L.=X<X<X<X<X<X<X<X<X",
"<X<X<X<X<X<X<X<XW.+.9                       q O.W.<X<X<X<X<X<X<X",
"<X<X<X<X<X<X<Xb.m                               k l.<X<X<X<X<X<X",
"<X<X<X<X<X<Xa.q                                   9 u.<X<X<X<X<X",
"<X<X<X<X<Xh.9                 O                     9 l.<X<X<X<X",
"<X<X<X<XL.j             Y y.h.8.1                     k T.<X<X<X",
"<X<X<X+X_             C _.,X,X!.r                       { =X<X<X",
"<X<X<Xc.:           r L.=X,X,X_.q       O * * * O       9 Z.<X<X",
"<X<X<X! C 2.A :   : a.|.y.=X,X!.r        .F.F.b.r         O.<X<X",
"<X<XT.r m a.W.D.*.2.+X+.L =X,X_.q     Q |.,X,X[.j         k _.<X",
"<X<Xy.r 8. .L O.!.,X+X:.&.=X,X_.y   c !.OX=X,X|.k         * V.<X",
"<X<XO.* { V.Y.a._.L.4.Y.OX,X,X|.d q D.].*.OX,XOXm           q.<X",
"<X<XQ     $ Q |.OX!.u.{ q.,X,X=Xy.c.=X' D =X,X|.k           *.<X",
"<X+XG     9 y.W.G Y a.!.[.,X,X+X+X,X+Xq.<.=X,XOXc            .,X",
"<X+XD O ' F.,X*.    O y 4.,X,X,X,Xb.*.D.|.,X,XOXm           O.,X",
"<X<XL * :.W.,Xl.*       ~ ,X,X,X].!.a. .<.,X,X,Xb.~ r       +.<X",
"<X<X{     q ! l.~       +.,X,X_.V G q.W.[.,X,X+XV.!.!.y.G O 8.<X",
"<X<X4.        $ 9   1 ;._.,X,XW.9     r 2.,X,X+X:.L { b.l.9 c.<X",
"<X<XD.9             $ G q._.,X|.c       ! ,X,X=XW.W.h.' d d !.<X",
"<X<XOXL                 O r _ b.&.      { ,X,X[.V A 8.F.j _ ,X<X",
"<X<X<Xh.*                     * 9   1 *.W.,X,X|.c     1 9 V.<X<X",
"<X<X<X|.!                           * Y u.].,X=XL       _ +X<X<X",
"<X<X<X<XF.y                             O d { D.y.O   j Y.<X<X<X",
"<X<X<X<X<Xu.1                                 : y O 1 h.<X<X<X<X",
"<X<X<X<X<X<Xy.:                                   1 q.<X<X<X<X<X",
"<X<X<X<X<X<X<Xa.d                               d h.<X<X<X<X<X<X",
"<X<X<X<X<X<X<X<XL.~ :                       : ' Y.<X<X<X<X<X<X<X",
"<X<X<X<X<X<X<X<X<XOXb.{ d $         O * j  .Z.+X<X<X<X<X<X<X<X<X",
"<X<X<X<X<X<X<X<X<X<X<X<XW.l.:. .O.<.u.V._.<X<X<X<X<X<X<X<X<X<X<X",
"<X<X<X<X<X<X<X<X<X<X<X<X<X<X<X<X<X<X<X<X<X<X<X<X<X<X<X<X<X<X<X<X"
};
